<svg xmlns="http://www.w3.org/2000/svg" xmlns:xlink="http://www.w3.org/1999/xlink" id="Layer_1" x="0px" y="0px" viewBox="0 0 100 44" style="enable-background:new 0 0 100 44;" xml:space="preserve"><style type="text/css">	.st0{fill-rule:evenodd;clip-rule:evenodd;fill:#FFFFFF;}</style><g>	<path class="st0" d="M50.87,19.82c0,3.18,0.69,6.03,1.87,8.41c0.13,0.26,0.24,0.46,0.38,0.72l0.85,1.34  c0.08,0.11,0.14,0.19,0.22,0.3c1.9,2.66,4.78,4.75,7.82,5.87c1.34,0.5,3.01,0.93,4.43,1.06c0.67,0.06,1.41,0.13,2.06,0.13  l2.13-0.11c0.82-0.11,1.02-0.1,1.97-0.26c2.29-0.38,4.61-1.3,6.49-2.48c0.94-0.59,2.03-1.46,2.83-2.22  c0.11-0.1,0.18-0.18,0.29-0.29c0.21-0.21,0.35-0.38,0.54-0.59l0.51-0.59c0.48-0.54,1.26-1.78,1.57-2.38l0.53-1.18  c0.98-2.29,1.55-4.51,1.55-7.68v-0.02c0-0.35-0.13-0.58-0.32-0.77c-0.45-0.45-1.33-0.32-1.97-0.32c-1.14,0-2.14-0.13-3.3,0  c-0.58,0.06-5.98-0.03-6.78-0.03c-0.22,0-1.26,0.05-1.46,0.13c-1.02,0.43-0.78,1.6-0.13,1.92c0.45,0.21,0.86,0.13,1.26,0.13h10.53  c0,1.46-0.43,3.36-0.9,4.72c-0.34,1.04-0.7,1.68-1.2,2.58l-0.37,0.58c-0.46,0.69-1.54,2.05-2.18,2.54  c-0.1,0.08-0.14,0.13-0.22,0.22c-0.1,0.1-0.16,0.14-0.27,0.22c-0.18,0.14-0.34,0.27-0.51,0.42c-0.1,0.08-0.16,0.11-0.26,0.19  l-0.85,0.58c-0.72,0.48-1.66,0.94-2.5,1.28c-3.73,1.49-7.95,1.7-11.85,0.5c-1.49-0.46-2.64-0.99-3.95-1.82  c-1.1-0.69-2.19-1.74-3.02-2.75l-0.82-1.09c-0.72-1.07-1.2-1.92-1.68-3.12c-0.1-0.22-0.19-0.46-0.27-0.7  c-0.88-2.59-1.17-5.33-0.7-8.08c0.26-1.55,0.72-2.98,1.41-4.37c0.38-0.78,0.77-1.5,1.3-2.19c0.45-0.61,0.66-0.8,1.04-1.28  c0.11-0.13,0.14-0.18,0.27-0.3c0.11-0.11,0.19-0.14,0.3-0.26c0.27-0.27,0.1-0.19,0.59-0.59c0.4-0.32,0.99-0.74,0.99-1.38  c0-0.85-0.93-1.46-1.95-0.62l-1.36,1.28c-0.72,0.72-1.82,2.18-2.32,3.01c-0.54,0.9-0.91,1.7-1.31,2.67  c-0.26,0.62-0.46,1.28-0.66,1.98C51.14,16.46,50.87,18.13,50.87,19.82 M28.34,3.52c-1.58-1.06-5.55-1.66-7.6-1.66  c-2.88,0-5.12,0.64-7.6,1.74l-0.74,0.37c-0.61,0.3-1.2,0.67-1.74,1.06c-0.11,0.08-0.19,0.13-0.32,0.21  c-0.13,0.1-0.21,0.14-0.32,0.24L9.29,6.08C9.21,6.16,9.21,6.16,9.13,6.22l-0.3,0.26C8.62,6.66,8.46,6.86,8.25,7.06  c-1.14,1.07-2.11,2.34-2.9,3.68c-1.49,2.53-2.5,5.65-2.5,8.61v0.13c0,2.59,0.24,4.05,1.02,6.41c0.56,1.68,1.58,3.6,2.7,4.98  c0.16,0.21,0.32,0.42,0.5,0.61c0.42,0.43,0.5,0.58,1.07,1.15c0.56,0.56,1.12,1.07,1.76,1.54c0.64,0.48,1.28,0.91,1.98,1.31  c2.58,1.49,5.6,2.4,8.62,2.4c3.09,0,5.26-0.48,7.92-1.66c0.98-0.43,1.97-0.99,2.82-1.62c0.91-0.69,1.57-1.2,2.4-2.03  c0.83-0.83,1.58-1.73,2.22-2.74c0.08-0.13,0.13-0.21,0.22-0.35c0.3-0.45,0.53-0.94,0.8-1.39c0.54-0.9,1.28-3.02,1.52-4.06  c1.02-4.54,0.3-9.44-1.97-13.21c-0.53-0.86-1.09-1.74-1.78-2.5c-0.11-0.13-0.21-0.24-0.32-0.38C34.24,7.76,34.12,7.68,34,7.55  c-0.06-0.08-0.06-0.1-0.14-0.18c-0.27-0.32-0.61-0.59-0.91-0.88c-0.1-0.1-0.29-0.24-0.42-0.32c-0.85-0.51-1.65,0.11-1.65,0.8  c0,0.78,0.56,0.98,0.94,1.38c1.39,1.39,2.59,2.94,3.41,4.77c0.98,2.21,1.54,4.24,1.54,6.83c0,2.08-0.51,4.62-1.42,6.46  c-0.72,1.44-1.09,2.06-2.05,3.36c-0.08,0.11-0.13,0.18-0.22,0.27c-0.06,0.08-0.05,0.06-0.1,0.13l-1.34,1.39  c-0.45,0.45-1.15,0.98-1.66,1.31c-0.19,0.13-0.38,0.26-0.59,0.38c-3.63,2.21-7.63,3.1-12.01,2.08c-1.04-0.24-2.05-0.54-2.99-0.99  c-0.9-0.43-1.73-0.86-2.56-1.42c-0.69-0.46-1.3-1.01-1.92-1.54l-0.75-0.75c-0.1-0.13-0.11-0.14-0.22-0.26  c-0.67-0.67-1.41-1.82-1.87-2.64c-0.13-0.21-0.22-0.4-0.34-0.64c-0.34-0.67-0.62-1.39-0.88-2.13c-0.16-0.48-0.32-1.02-0.43-1.55  c-0.11-0.53-0.24-1.14-0.3-1.7c-0.13-1.44-0.14-2.26,0-3.7c0.21-2.24,1.06-4.64,2.24-6.49c0.06-0.11,0.13-0.19,0.19-0.29  c0.06-0.11,0.11-0.19,0.19-0.3c0.53-0.77,1.1-1.49,1.76-2.14c1.34-1.34,2.78-2.38,4.51-3.26C15.82,4.61,18.2,4,20.26,4  c1.39,0,2.5,0.06,3.82,0.32c0.66,0.13,1.25,0.26,1.86,0.46c0.19,0.06,0.42,0.18,0.61,0.19c-0.19,0.29-0.75,0.9-1.18,1.54  c-1.23,1.86-1.86,3.84-1.86,6.35v19.92c0,1.12,1.39,1.55,1.92,0.7c0.19-0.32,0.19-0.58,0.19-1.07V12.78c0-0.27,0.03-0.4,0.05-0.61  c0.16-3.44,2.32-6.51,5.49-7.81C31.6,4.18,32.1,4,32.58,3.89c3.36-0.82,6.41,0.16,8.73,2.45c1.33,1.31,2.27,3.23,2.48,5.12  l0.11,1.42c0.06,0.43,0.02,18.36,0.02,18.36v9.15c0,0.46-0.06,1.14,0.08,1.47c0.18,0.38,0.54,0.61,0.91,0.66h0.21  c0.32-0.03,0.61-0.21,0.77-0.56c0.14-0.32,0.14-0.82,0.18-1.2c0.05-0.42,0.03-0.99-0.02-1.34c-0.05-0.35-0.02-0.99-0.02-1.38V13.2  c0-2.43,0.45-3.9,1.57-5.58c0.29-0.43,0.61-0.83,0.96-1.2c0.13-0.13,0.24-0.24,0.37-0.37c0.99-0.99,2.35-1.68,3.7-2.08  c0.38-0.11,0.75-0.19,1.2-0.27c0.85-0.13,1.81-0.14,2.7-0.02c1.54,0.21,3.26,0.94,4.45,1.98l0.77,0.69  c0.48,0.48,0.91,1.06,1.25,1.63c0.46,0.77,0.82,1.63,1.02,2.59c0.38,1.66,0.27,3.73,0.27,5.5c0,0.62-0.1,3.73,0.13,4.18  c0.08,0.18,0.18,0.29,0.34,0.4c0.51,0.35,1.3,0.18,1.55-0.4c0.11-0.27,0.13-0.94,0.13-1.33c0-2.02,0.11-6.3-0.19-8.14  c-0.19-1.2-0.53-2.21-1.07-3.25c-0.08-0.14-0.18-0.3-0.27-0.46l-0.88-1.28c-0.16-0.21-0.59-0.62-0.64-0.82  c0.16-0.02,0.45-0.11,0.58-0.16C65.28,4.38,67.09,4,68.49,4c1.81,0,2.83,0.08,4.53,0.51c1.84,0.46,4.86,1.95,6.25,3.34  c0.11,0.11,0.16,0.18,0.27,0.26c0.35,0.27,0.74,0.77,1.26,0.77c0.54,0,1.06-0.43,1.06-0.98c0-0.86-0.59-1.12-1.25-1.71  c-1.14-1.06-2.66-1.9-4.02-2.59c-0.02,0-0.05-0.02-0.05-0.03c-0.9-0.46-1.89-0.82-2.86-1.09c-0.61-0.18-1.17-0.29-1.84-0.4  c-0.34-0.05-0.67-0.11-0.99-0.14c-0.37-0.03-0.7-0.02-1.09-0.05c-1.3-0.11-2.96,0.1-4.06,0.32c-1.34,0.27-2.66,0.59-3.89,1.14  c-0.35,0.16-0.46,0-0.75-0.19c-0.13-0.08-0.21-0.13-0.35-0.21c-2.78-1.65-6.24-1.84-9.31-0.82c-1.26,0.42-2.3,1.06-3.3,1.82  c-0.77,0.61-1.44,1.31-2.02,2.1c-0.08,0.11-0.14,0.19-0.22,0.3c-0.1,0.13-0.13,0.21-0.21,0.32C45.51,6.91,45.06,7.9,44.91,8  c-0.06-0.69-1.76-2.93-2.56-3.57c-0.37-0.3-0.74-0.66-1.15-0.93c-1.84-1.22-3.9-2.02-6.24-2.02H34.9c-1.42,0-2.64,0.18-3.97,0.64  C30.05,2.45,29.06,2.9,28.34,3.52z"></path>	<path class="st0" d="M92.6,4.27c-0.56,0.06-0.99,0.21-1.41,0.45c-0.58,0.32-1.1,0.83-1.41,1.38c-0.11,0.19-0.21,0.4-0.29,0.62  c-0.93,2.59,1.22,5.25,3.89,4.96c1.1-0.11,1.95-0.7,2.43-1.28c0.66-0.78,0.99-1.73,0.88-2.82C96.46,5.5,94.58,4.05,92.6,4.27   M92.92,9.41h0.54V7.2c0.03,0.03,0.06,0.22,0.08,0.27l0.5,1.94h0.56c0.05-0.08,0.26-0.96,0.29-1.12l0.29-1.12v2.26h0.54V6.51h-0.88  l-0.51,1.95c-0.06-0.1-0.22-0.8-0.27-0.98l-0.22-0.86c-0.02-0.08-0.02-0.11-0.06-0.11h-0.85C92.92,6.51,92.92,9.41,92.92,9.41z   M90.23,7.01h0.86v2.4h0.59v-2.4h0.86v-0.5h-2.3v0.5H90.23z M92.68,3.81c-0.85,0.06-1.63,0.37-2.26,0.86  c-0.26,0.21-0.34,0.3-0.54,0.5c-0.3,0.3-0.62,0.88-0.78,1.3c-0.21,0.53-0.3,1.17-0.27,1.79c0.16,2.19,2.08,4.03,4.45,3.86  c2.19-0.16,4.02-2.05,3.86-4.45C96.98,5.49,95.06,3.63,92.68,3.81z"></path></g></svg>