<svg xmlns="http://www.w3.org/2000/svg" xmlns:xlink="http://www.w3.org/1999/xlink" id="Layer_1" x="0px" y="0px" viewBox="0 0 131 30" style="enable-background:new 0 0 131 30;" xml:space="preserve"><style type="text/css">	.st0{fill-rule:evenodd;clip-rule:evenodd;fill:#FFFFFF;}</style><g>	<path class="st0" d="M66.04,13.64c0,1.99,0.43,3.77,1.17,5.26c0.08,0.16,0.15,0.29,0.24,0.45l0.53,0.84  c0.05,0.07,0.09,0.12,0.14,0.19c1.19,1.66,2.99,2.97,4.89,3.67c0.84,0.31,1.88,0.58,2.77,0.66c0.42,0.04,0.88,0.08,1.29,0.08  l1.33-0.07c0.51-0.07,0.64-0.06,1.23-0.16c1.43-0.24,2.88-0.81,4.06-1.55c0.59-0.37,1.27-0.91,1.77-1.39  c0.07-0.06,0.11-0.11,0.18-0.18c0.13-0.13,0.22-0.24,0.34-0.37l0.32-0.37c0.3-0.34,0.79-1.11,0.98-1.49l0.33-0.74  c0.61-1.43,0.97-2.82,0.97-4.8v-0.01c0-0.22-0.08-0.36-0.2-0.48c-0.28-0.28-0.83-0.2-1.23-0.2c-0.71,0-1.34-0.08-2.06,0  c-0.36,0.04-3.74-0.02-4.24-0.02c-0.14,0-0.79,0.03-0.91,0.08c-0.64,0.27-0.49,1-0.08,1.2c0.28,0.13,0.54,0.08,0.79,0.08h6.58  c0,0.91-0.27,2.1-0.56,2.95c-0.21,0.65-0.44,1.05-0.75,1.61l-0.23,0.36c-0.29,0.43-0.96,1.28-1.36,1.59  c-0.06,0.05-0.09,0.08-0.14,0.14c-0.06,0.06-0.1,0.09-0.17,0.14c-0.11,0.09-0.21,0.17-0.32,0.26c-0.06,0.05-0.1,0.07-0.16,0.12  l-0.53,0.36c-0.45,0.3-1.04,0.59-1.56,0.8c-2.33,0.93-4.97,1.06-7.41,0.31c-0.93-0.29-1.65-0.62-2.47-1.14  c-0.69-0.43-1.37-1.09-1.89-1.72l-0.51-0.68c-0.45-0.67-0.75-1.2-1.05-1.95c-0.06-0.14-0.12-0.29-0.17-0.44  c-0.55-1.62-0.73-3.33-0.44-5.05c0.16-0.97,0.45-1.86,0.88-2.73c0.24-0.49,0.48-0.94,0.81-1.37c0.28-0.38,0.41-0.5,0.65-0.8  c0.07-0.08,0.09-0.11,0.17-0.19c0.07-0.07,0.12-0.09,0.19-0.16c0.17-0.17,0.06-0.12,0.37-0.37c0.25-0.2,0.62-0.46,0.62-0.86  c0-0.53-0.58-0.91-1.22-0.39l-0.85,0.8c-0.45,0.45-1.14,1.36-1.45,1.88c-0.34,0.56-0.57,1.06-0.82,1.67  c-0.16,0.39-0.29,0.8-0.41,1.24C66.21,11.54,66.04,12.58,66.04,13.64 M51.96,3.45c-0.99-0.66-3.47-1.04-4.75-1.04  c-1.8,0-3.2,0.4-4.75,1.09L42,3.73c-0.38,0.19-0.75,0.42-1.09,0.66c-0.07,0.05-0.12,0.08-0.2,0.13c-0.08,0.06-0.13,0.09-0.2,0.15  l-0.46,0.38C40,5.1,40,5.1,39.95,5.14L39.76,5.3c-0.13,0.11-0.23,0.24-0.36,0.36c-0.71,0.67-1.32,1.46-1.81,2.3  c-0.93,1.58-1.56,3.53-1.56,5.38v0.08c0,1.62,0.15,2.53,0.64,4.01c0.35,1.05,0.99,2.25,1.69,3.11c0.1,0.13,0.2,0.26,0.31,0.38  c0.26,0.27,0.31,0.36,0.67,0.72c0.35,0.35,0.7,0.67,1.1,0.96c0.4,0.3,0.8,0.57,1.24,0.82c1.61,0.93,3.5,1.5,5.39,1.5  c1.93,0,3.29-0.3,4.95-1.04c0.61-0.27,1.23-0.62,1.76-1.01c0.57-0.43,0.98-0.75,1.5-1.27c0.52-0.52,0.99-1.08,1.39-1.71  c0.05-0.08,0.08-0.13,0.14-0.22c0.19-0.28,0.33-0.59,0.5-0.87c0.34-0.56,0.8-1.89,0.95-2.54c0.64-2.84,0.19-5.9-1.23-8.26  c-0.33-0.54-0.68-1.09-1.11-1.56c-0.07-0.08-0.13-0.15-0.2-0.24c-0.07-0.1-0.15-0.15-0.22-0.23c-0.04-0.05-0.04-0.06-0.09-0.11  c-0.17-0.2-0.38-0.37-0.57-0.55c-0.06-0.06-0.18-0.15-0.26-0.2c-0.53-0.32-1.03,0.07-1.03,0.5c0,0.49,0.35,0.61,0.59,0.86  c0.87,0.87,1.62,1.84,2.13,2.98c0.61,1.38,0.96,2.65,0.96,4.27c0,1.3-0.32,2.89-0.89,4.04c-0.45,0.9-0.68,1.29-1.28,2.1  c-0.05,0.07-0.08,0.11-0.14,0.17c-0.04,0.05-0.03,0.04-0.06,0.08l-0.84,0.87c-0.28,0.28-0.72,0.61-1.04,0.82  c-0.12,0.08-0.24,0.16-0.37,0.24c-2.27,1.38-4.77,1.94-7.51,1.3c-0.65-0.15-1.28-0.34-1.87-0.62c-0.56-0.27-1.08-0.54-1.6-0.89  c-0.43-0.29-0.81-0.63-1.2-0.96l-0.47-0.47c-0.06-0.08-0.07-0.09-0.14-0.16c-0.42-0.42-0.88-1.14-1.17-1.65  c-0.08-0.13-0.14-0.25-0.21-0.4c-0.21-0.42-0.39-0.87-0.55-1.33c-0.1-0.3-0.2-0.64-0.27-0.97c-0.07-0.33-0.15-0.71-0.19-1.06  c-0.08-0.9-0.09-1.41,0-2.31c0.13-1.4,0.66-2.9,1.4-4.06c0.04-0.07,0.08-0.12,0.12-0.18c0.04-0.07,0.07-0.12,0.12-0.19  c0.33-0.48,0.69-0.93,1.1-1.34c0.84-0.84,1.74-1.49,2.82-2.04c1.14-0.58,2.63-0.96,3.92-0.96c0.87,0,1.56,0.04,2.39,0.2  c0.41,0.08,0.78,0.16,1.16,0.29c0.12,0.04,0.26,0.11,0.38,0.12c-0.12,0.18-0.47,0.56-0.74,0.96c-0.77,1.16-1.16,2.4-1.16,3.97  v12.45c0,0.7,0.87,0.97,1.2,0.44c0.12-0.2,0.12-0.36,0.12-0.67V9.24c0-0.17,0.02-0.25,0.03-0.38c0.1-2.15,1.45-4.07,3.43-4.88  c0.28-0.12,0.59-0.23,0.89-0.3c2.1-0.51,4.01,0.1,5.46,1.53c0.83,0.82,1.42,2.02,1.55,3.2l0.07,0.89  c0.04,0.27,0.01,11.48,0.01,11.48v5.72c0,0.29-0.04,0.71,0.05,0.92c0.11,0.24,0.34,0.38,0.57,0.41h0.13  c0.2-0.02,0.38-0.13,0.48-0.35c0.09-0.2,0.09-0.51,0.11-0.75c0.03-0.26,0.02-0.62-0.01-0.84c-0.03-0.22-0.01-0.62-0.01-0.86V9.5  c0-1.52,0.28-2.44,0.98-3.49c0.18-0.27,0.38-0.52,0.6-0.75c0.08-0.08,0.15-0.15,0.23-0.23c0.62-0.62,1.47-1.05,2.31-1.3  c0.24-0.07,0.47-0.12,0.75-0.17c0.53-0.08,1.13-0.09,1.69-0.01c0.96,0.13,2.04,0.59,2.78,1.24l0.48,0.43  c0.3,0.3,0.57,0.66,0.78,1.02c0.29,0.48,0.51,1.02,0.64,1.62c0.24,1.04,0.17,2.33,0.17,3.44c0,0.39-0.06,2.33,0.08,2.61  c0.05,0.11,0.11,0.18,0.21,0.25c0.32,0.22,0.81,0.11,0.97-0.25c0.07-0.17,0.08-0.59,0.08-0.83c0-1.26,0.07-3.94-0.12-5.09  c-0.12-0.75-0.33-1.38-0.67-2.03c-0.05-0.09-0.11-0.19-0.17-0.29l-0.55-0.8c-0.1-0.13-0.37-0.39-0.4-0.51  c0.1-0.01,0.28-0.07,0.36-0.1c0.83-0.27,1.96-0.51,2.84-0.51c1.13,0,1.77,0.05,2.83,0.32c1.15,0.29,3.04,1.22,3.91,2.09  c0.07,0.07,0.1,0.11,0.17,0.16c0.22,0.17,0.46,0.48,0.79,0.48c0.34,0,0.66-0.27,0.66-0.61c0-0.54-0.37-0.7-0.78-1.07  c-0.71-0.66-1.66-1.19-2.51-1.62c-0.01,0-0.03-0.01-0.03-0.02c-0.56-0.29-1.18-0.51-1.79-0.68c-0.38-0.11-0.73-0.18-1.15-0.25  c-0.21-0.03-0.42-0.07-0.62-0.09c-0.23-0.02-0.44-0.01-0.68-0.03c-0.81-0.07-1.85,0.06-2.54,0.2C74.48,2.8,73.66,3,72.89,3.34  c-0.22,0.1-0.29,0-0.47-0.12c-0.08-0.05-0.13-0.08-0.22-0.13c-1.74-1.03-3.9-1.15-5.82-0.51c-0.79,0.26-1.44,0.66-2.06,1.14  c-0.48,0.38-0.9,0.82-1.26,1.31c-0.05,0.07-0.09,0.12-0.14,0.19c-0.06,0.08-0.08,0.13-0.13,0.2c-0.1,0.15-0.38,0.77-0.47,0.83  c-0.04-0.43-1.1-1.83-1.6-2.23c-0.23-0.19-0.46-0.41-0.72-0.58c-1.15-0.76-2.44-1.26-3.9-1.26h-0.04c-0.89,0-1.65,0.11-2.48,0.4  C53.03,2.78,52.41,3.06,51.96,3.45z"></path>	<path class="st0" d="M92.13,3.92c-0.35,0.04-0.62,0.13-0.88,0.28c-0.36,0.2-0.69,0.52-0.88,0.86c-0.07,0.12-0.13,0.25-0.18,0.39  c-0.58,1.62,0.76,3.28,2.43,3.1c0.69-0.07,1.22-0.44,1.52-0.8c0.41-0.49,0.62-1.08,0.55-1.76C94.54,4.69,93.37,3.78,92.13,3.92   M92.33,7.13l0.34,0l0-1.38c0.02,0.02,0.04,0.14,0.05,0.17l0.31,1.21l0.35,0c0.03-0.05,0.16-0.6,0.18-0.7l0.18-0.7l0,1.41l0.34,0  V5.32l-0.55,0l-0.32,1.22c-0.04-0.06-0.14-0.5-0.17-0.61l-0.14-0.54c-0.01-0.05-0.01-0.07-0.04-0.07l-0.53,0V7.13z M90.65,5.63  h0.54l0,1.5l0.37,0v-1.5l0.54,0l0-0.31h-1.44V5.63z M92.18,3.63c-0.53,0.04-1.02,0.23-1.41,0.54c-0.16,0.13-0.21,0.19-0.34,0.31  c-0.19,0.19-0.39,0.55-0.49,0.81c-0.13,0.33-0.19,0.73-0.17,1.12c0.1,1.37,1.3,2.52,2.78,2.41c1.37-0.1,2.51-1.28,2.41-2.78  C94.87,4.68,93.67,3.52,92.18,3.63z"></path></g></svg>